<?xml version="1.0" encoding="utf-8"?>
<!-- Generator: Adobe Illustrator 21.0.2, SVG Export Plug-In . SVG Version: 6.00 Build 0)  -->
<svg version="1.1" id="Layer_1" xmlns="http://www.w3.org/2000/svg" xmlns:xlink="http://www.w3.org/1999/xlink" x="0px" y="0px"
	 viewBox="0 0 100 25" style="enable-background:new 0 0 100 25;" xml:space="preserve">
<title>iii</title>
<g>
	<path d="M3.1,8.1h3.2c1.6,0,2.4,1,2.4,2.2c0,0.8-0.4,1.3-1.2,1.5c1.1,0.3,1.7,1,1.7,2.1c0,1.5-1.1,2.6-2.8,2.6H3V8.1H3.1z
		 M6.2,11.2c0.6,0,0.9-0.3,0.9-0.8S6.8,9.6,6.3,9.6H4.9v1.6L6.2,11.2z M6.4,14.9c0.7,0,1.1-0.5,1.1-1.2s-0.4-1.1-1.2-1.1H4.8v2.3
		L6.4,14.9z"/>
	<path d="M10.4,11.2h1.7v0.9c0.4-0.9,1-1.1,1.5-1.1c0.3,0,0.6,0.1,0.8,0.2l-0.5,1.5c-0.2-0.1-0.4-0.2-0.6-0.2
		c-0.8,0-1.2,0.3-1.2,1.5v2.3h-1.7L10.4,11.2z"/>
	<path d="M17.8,15.2c0.5,0,0.9-0.1,1.3-0.4l0.9,1c-0.5,0.4-1.1,0.8-2.2,0.8c-1.9,0-3.1-1.1-3.1-2.7s1.3-2.7,2.9-2.7
		c1.9,0,2.9,1.4,2.8,3.2h-4C16.6,14.8,17,15.2,17.8,15.2z M18.7,13.3c-0.1-0.6-0.4-0.9-1.1-0.9s-1.1,0.3-1.2,0.9H18.7z"/>
	<path d="M20.7,11.2h1.8l0.6,1.5c0.2,0.4,0.3,0.8,0.4,1.2c0.1-0.4,0.3-0.8,0.4-1.2l0.9-1.6h0.1l0.9,1.6c0.2,0.4,0.3,0.8,0.4,1.2
		c0.1-0.4,0.2-0.8,0.4-1.2l0.6-1.5h1.7l-2.4,5.4h-0.1l-1.1-2.1c-0.2-0.3-0.3-0.7-0.4-1.1c-0.1,0.4-0.2,0.7-0.4,1.1l-1.2,2.1h-0.1
		L20.7,11.2z"/>
	<path d="M31.7,12.4c-0.4,0-0.9,0.2-1.2,0.5l-0.9-1c0.5-0.5,1.1-0.9,2.3-0.9c1.3,0,2.4,0.7,2.4,2.4v3h-1.7v-0.7
		c-0.4,0.6-0.8,0.8-1.5,0.8c-1,0-1.8-0.4-1.8-1.7c0-1.1,0.8-1.6,2.1-1.6h1.2C32.5,12.8,32.2,12.4,31.7,12.4z M31.4,14.3
		c-0.4,0-0.6,0.2-0.6,0.5s0.2,0.5,0.7,0.5c0.7,0,1-0.3,1-0.7v-0.2L31.4,14.3z"/>
	<path d="M40.6,11.2v1.2h-0.8c0.1,0.2,0.2,0.4,0.2,0.6c0,1.1-0.9,1.9-2.2,1.9c-0.4,0-0.7-0.1-1.1-0.2c-0.1,0.1-0.1,0.2-0.1,0.3
		c0,0.2,0.2,0.4,0.5,0.4l1.3,0.1c1.4,0.1,2.2,0.7,2.2,1.7c0,1.1-0.8,1.9-2.9,1.9c-1.9,0-2.8-0.7-2.8-1.7c0-0.6,0.4-0.9,1-1.2
		c-0.4-0.2-0.7-0.6-0.6-1.1c0-0.5,0.3-0.8,0.7-1c-0.3-0.3-0.5-0.8-0.5-1.2c0-1.1,0.9-1.9,2.3-1.9c0.3,0,0.5,0,0.8,0.1L40.6,11.2z
		 M36.6,17.2c0,0.4,0.3,0.7,1.2,0.7c1,0,1.2-0.3,1.2-0.6S38.8,17,38.1,17l-1.4-0.1C36.6,17,36.6,17,36.6,17.2L36.6,17.2z M38.6,13.1
		c0-0.4-0.3-0.7-0.8-0.7S37,12.6,37,13.1c0,0.4,0.3,0.7,0.8,0.7S38.6,13.4,38.6,13.1L38.6,13.1z"/>
	<path d="M44.2,15.2c0.5,0,0.9-0.1,1.3-0.4l0.9,1c-0.5,0.4-1.1,0.8-2.2,0.8c-1.9,0-3.1-1.1-3.1-2.7s1.3-2.7,2.9-2.7
		c1.9,0,2.9,1.4,2.8,3.2h-4C43.1,14.8,43.5,15.2,44.2,15.2z M45.2,13.3c-0.1-0.6-0.4-0.9-1.1-0.9s-1.1,0.3-1.2,0.9H45.2z"/>
	<path d="M52.9,12.4c-0.4,0-0.9,0.2-1.2,0.5l-0.9-1c0.5-0.5,1.1-0.9,2.3-0.9c1.3,0,2.4,0.7,2.4,2.4v3h-1.7v-0.7
		c-0.4,0.6-0.8,0.8-1.5,0.8c-1,0-1.8-0.4-1.8-1.7c0-1.1,0.8-1.6,2.1-1.6h1.2C53.8,12.8,53.5,12.4,52.9,12.4z M51.3,7.9h1.9l0.6,2.3
		h-1.3L51.3,7.9z M52.7,14.3c-0.4,0-0.6,0.2-0.6,0.5s0.2,0.5,0.7,0.5c0.7,0,1-0.3,1-0.7v-0.2L52.7,14.3z"/>
	<path d="M61.2,9.6h-2.4V8.1h6.5v1.5h-2.4v6.8h-1.7V9.6L61.2,9.6z"/>
	<path d="M64.9,11.2h1.7v0.9c0.4-0.9,1-1.1,1.5-1.1c0.3,0,0.6,0.1,0.8,0.2l-0.5,1.5c-0.2-0.1-0.4-0.2-0.6-0.2
		c-0.8,0-1.2,0.3-1.2,1.5v2.3h-1.7C64.9,16.2,64.9,11.2,64.9,11.2z"/>
	<path d="M69.3,13.8c0-1.6,1.3-2.7,2.9-2.7s2.9,1.1,2.9,2.7s-1.3,2.7-2.9,2.7C70.5,16.5,69.3,15.4,69.3,13.8z M73.3,13.8
		c0-0.8-0.4-1.3-1.2-1.3c-0.7,0-1.2,0.5-1.2,1.3s0.5,1.3,1.2,1.3S73.3,14.6,73.3,13.8L73.3,13.8z"/>
	<path d="M75.9,9.3c0-0.6,0.5-1.1,1.1-1.1s1.1,0.5,1.1,1.1s-0.5,1.1-1.1,1.1l0,0C76.3,10.3,75.9,9.8,75.9,9.3L75.9,9.3z M76.1,11.2
		h1.7v5.2h-1.7V11.2z"/>
	<path d="M79,9.3c0-0.6,0.5-1.1,1.1-1.1s1.1,0.5,1.1,1.1s-0.5,1.1-1.1,1.1l0,0C79.5,10.3,79,9.8,79,9.3L79,9.3z M79.2,11.2h1.7v5.2
		h-1.7V11.2z"/>
	<path d="M82.2,9.3c0-0.6,0.5-1.1,1.1-1.1s1.1,0.5,1.1,1.1s-0.5,1.1-1.1,1.1l0,0C82.7,10.3,82.2,9.8,82.2,9.3L82.2,9.3z M82.4,11.2
		h1.7v5.2h-1.7V11.2z"/>
	<path d="M85,15.6l1-0.9c0.3,0.3,0.8,0.6,1.3,0.6S88,15.2,88,15c0-0.3-0.3-0.3-1.2-0.5c-0.7-0.2-1.5-0.6-1.5-1.7
		c0-1.2,0.9-1.7,2-1.7c0.9,0,1.5,0.3,1.9,0.7l-0.9,0.9c-0.3-0.2-0.6-0.4-1-0.4s-0.6,0.1-0.6,0.3c0,0.3,0.3,0.3,1.1,0.5
		c0.8,0.2,1.7,0.5,1.7,1.6c0,1-0.5,1.7-2.2,1.7C86.2,16.5,85.4,16,85,15.6z"/>
</g>
</svg>
