<?xml version="1.0" encoding="utf-8"?>
<!-- Generator: Adobe Illustrator 21.0.2, SVG Export Plug-In . SVG Version: 6.00 Build 0)  -->
<svg version="1.1" id="Layer_1" xmlns="http://www.w3.org/2000/svg" xmlns:xlink="http://www.w3.org/1999/xlink" x="0px" y="0px"
	 viewBox="0 0 24 24" style="enable-background:new 0 0 24 24;" xml:space="preserve">
<path d="M11,3.1c2.9,0,3.2,0,4.4,0.1c2.9,0.1,4.3,1.5,4.5,4.5c0.1,1.1,0.1,1.5,0.1,4.4c0,2.9,0,3.2-0.1,4.4
	c-0.1,2.9-1.5,4.3-4.5,4.5c-1.1,0.1-1.5,0.1-4.4,0.1c-2.9,0-3.2,0-4.4-0.1c-2.9-0.1-4.3-1.5-4.5-4.5c-0.1-1.1-0.1-1.5-0.1-4.4
	c0-2.9,0-3.2,0.1-4.4c0.1-2.9,1.5-4.3,4.5-4.5C7.8,3.1,8.1,3.1,11,3.1z M11,1.1c-2.9,0-3.3,0-4.5,0.1C2.6,1.4,0.4,3.6,0.2,7.5
	C0.2,8.7,0.1,9.1,0.1,12s0,3.3,0.1,4.5c0.2,3.9,2.4,6.1,6.3,6.3c1.2,0.1,1.5,0.1,4.5,0.1s3.3,0,4.5-0.1c3.9-0.2,6.1-2.4,6.3-6.3
	c0.1-1.2,0.1-1.5,0.1-4.5s0-3.3-0.1-4.5c-0.2-3.9-2.4-6.1-6.3-6.3C14.3,1.2,13.9,1.1,11,1.1z M11,6.4c-3.1,0-5.6,2.5-5.6,5.6
	s2.5,5.6,5.6,5.6s5.6-2.5,5.6-5.6C16.6,8.9,14.1,6.4,11,6.4z M11,15.6c-2,0-3.6-1.6-3.6-3.6c0-2,1.6-3.6,3.6-3.6s3.6,1.6,3.6,3.6
	C14.6,14,13,15.6,11,15.6z M16.8,4.9c-0.7,0-1.3,0.6-1.3,1.3s0.6,1.3,1.3,1.3c0.7,0,1.3-0.6,1.3-1.3S17.5,4.9,16.8,4.9z"/>
</svg>
